<?xml version="1.0" encoding="iso-8859-1"?>
<!-- Generator: Adobe Illustrator 19.0.0, SVG Export Plug-In . SVG Version: 6.00 Build 0)  -->
<svg version="1.1" id="Layer_1" xmlns="http://www.w3.org/2000/svg" xmlns:xlink="http://www.w3.org/1999/xlink" x="0px" y="0px"
	 viewBox="0 0 504 504" style="enable-background:new 0 0 504 504;" xml:space="preserve">
<path style="fill:#7BD100;" d="M483.6,447.2c0,9.6-8,17.6-17.6,17.6H37.2c-9.6,0-17.6-8-17.6-17.6V17.6C19.6,8,27.6,0,37.2,0h429.6
	c9.6,0,17.6,8,17.6,17.6v429.6H483.6z"/>
<path style="fill:#FDFFFF;" d="M33.2,72v361.6c0,8.8,7.2,16,16,16H454c8.8,0,16-7.2,16-16V72H33.2z"/>
<path style="fill:#E6EFEF;" d="M454,449.6c8.8,0,16-7.2,16-16V72H33.2"/>
<path style="opacity:0.2;fill:#B5C6C6;enable-background:new    ;" d="M450,82.4H278c-10.4,0-18.4,9.6-18.4,20.8v352
	c0,11.2,8.8,20.8,19.2,20.8h172c10.4,0,19.2-9.6,19.2-20.8v-352C468.4,92,460.4,82.4,450,82.4z"/>
<rect x="33.2" y="72" style="fill:#DAE5E5;" width="436.8" height="20"/>
<path style="fill:#FDFFFF;" d="M392.4,36.8c0,8.8-7.2,16-16,16h-328c-8.8,0-7.2-7.2-7.2-16l0,0c0-8.8-1.6-16,7.2-16h328
	C385.2,20.8,392.4,28,392.4,36.8L392.4,36.8z"/>
<path style="fill:#E6EFEF;" d="M41.2,36.8L41.2,36.8c0-8.8-1.6-16,7.2-16h328c8.8,0,16,7.2,16,16l0,0"/>
<circle style="opacity:0.4;fill:#B1BCBC;enable-background:new    ;" cx="421.2" cy="38.4" r="8"/>
<circle style="fill:#FFFFFF;" cx="421.2" cy="34.4" r="8"/>
<path style="fill:#E8EFEE;" d="M414.8,28.8c3.2-3.2,8.8-3.2,12,0s3.2,8.8,0,12"/>
<circle style="opacity:0.4;fill:#B1BCBC;enable-background:new    ;" cx="453.2" cy="38.4" r="8"/>
<circle style="fill:#FFFFFF;" cx="453.2" cy="34.4" r="8"/>
<path style="fill:#E8EFEE;" d="M447.6,28.8c3.2-3.2,8.8-3.2,12,0s3.2,8.8,0,12"/>
<path style="fill:#7BD100;" d="M110.8,29.6l-0.8-0.8h-2.4c-0.8,0-0.8,0-0.8,0.8l-1.6,6.4l0,0l0,0l-1.6-6.4c0-0.8-0.8-0.8-0.8-0.8
	h-1.6c-0.8,0-0.8,0-0.8,0.8L97.2,36l0,0l0,0l-1.6-6.4c0-0.8-0.8-0.8-0.8-0.8h-2.4c0,0,0,0-0.8,0c0,0,0,0-0.8,0h-2.4
	c-0.8,0-0.8,0-0.8,0.8L86.8,36l0,0l0,0l-1.6-6.4c0-0.8-0.8-0.8-0.8-0.8h-1.6c-0.8,0-0.8,0-0.8,0.8L78.8,36l0,0l0,0l-1.6-6.4
	c0-0.8-0.8-0.8-0.8-0.8H74c0,0,0,0-0.8,0c0,0,0,0-0.8,0h-1.6c-0.8,0-0.8,0-0.8,0.8L67.6,36l0,0l0,0L66,30.4c0-0.8-0.8-0.8-0.8-0.8
	h-2.4c-0.8,0-0.8,0-0.8,0.8L60.4,36l0,0l0,0l-1.6-5.6c0-0.8-0.8-0.8-0.8-0.8h-3.2c0,0-0.8,0-0.8,0.8v0.8l4,12c0,0.8,0.8,0.8,0.8,0.8
	h2.4c0.8,0,0.8,0,0.8-0.8l1.6-5.6c0,0,0,0,0-0.8l0,0l1.6,5.6c0,0.8,0.8,0.8,0.8,0.8h2.4c0.8,0,0.8,0,0.8-0.8L72.4,32l3.2,10.4
	c0,0.8,0.8,0.8,0.8,0.8h2.4c0.8,0,0.8,0,0.8-0.8l1.6-5.6c0,0,0,0,0-0.8l0,0l1.6,5.6c0,0.8,0.8,0.8,0.8,0.8H86c0.8,0,0.8,0,0.8-0.8
	L90,31.2l3.2,10.4c0,0.8,0.8,0.8,0.8,0.8h1.6c0.8,0,0.8,0,0.8-0.8L98,36c0,0,0,0,0-0.8l0,0l1.6,5.6c0,0.8,0.8,0.8,0.8,0.8h2.4
	c0.8,0,0.8,0,0.8-0.8l4-12C111.6,30.4,111.6,29.6,110.8,29.6z"/>
<path style="fill:#97AAA9;" d="M465.2,126.4h-164c-9.6,0-18.4,8.8-18.4,20V484c0,11.2,8,20,18.4,20H466c9.6,0,18.4-8.8,18.4-20
	V146.4C483.6,135.2,475.6,126.4,465.2,126.4z"/>
<path style="fill:#B5C6C6;" d="M465.2,120h-164c-9.6,0-18.4,8.8-18.4,20v337.6c0,11.2,8,20,18.4,20H466c9.6,0,18.4-8.8,18.4-20V140
	C483.6,128.8,475.6,120,465.2,120z"/>
<rect x="282.8" y="147.2" style="fill:#5C777A;" width="200.8" height="307.2"/>
<path style="opacity:0.3;fill:#2B545B;enable-background:new    ;" d="M454.8,143.2H311.6c-7.2,0-13.6,6.4-13.6,14.4v296.8
	c0,8,5.6,8,13.6,8H454c7.2,0,13.6,0,13.6-8V157.6C467.6,149.6,462,143.2,454.8,143.2z"/>
<path style="fill:#193E44;" d="M454.8,147.2H311.6c-7.2,0-13.6,6.4-13.6,14.4V440c0,8,5.6,14.4,13.6,14.4H454
	c7.2,0,13.6-6.4,13.6-14.4V161.6C467.6,153.6,462,147.2,454.8,147.2z"/>
<g>
	<path style="fill:#244B54;" d="M454.8,455.2c7.2,0,13.6-6.4,13.6-14.4V161.6c0-8-6.4-14.4-13.6-14.4H311.6
		c-7.2,0-13.6,6.4-13.6,14.4"/>
	<circle style="fill:#244B54;" cx="303.6" cy="133.6" r="4.8"/>
</g>
<path style="fill:#193E44;" d="M306.8,136.8c-1.6,1.6-4.8,1.6-6.4,0s-1.6-4.8,0-6.4"/>
<path style="fill:#244B54;" d="M332.4,133.6c0,2.4-1.6,4-4,4h-12c-2.4,0-4-1.6-4-4l0,0c0-2.4,1.6-4,4-4h12
	C330.8,128.8,332.4,131.2,332.4,133.6L332.4,133.6z"/>
<circle style="fill:#2EE5CA;" cx="318" cy="133.6" r="3.2"/>
<path style="fill:#1BCEB8;" d="M320.4,135.2c-0.8,0.8-3.2,0.8-4,0s-0.8-3.2,0-4"/>
<circle style="fill:#FF5AC8;" cx="326.8" cy="133.6" r="3.2"/>
<path style="fill:#F240AE;" d="M328.4,135.2c-0.8,0.8-3.2,0.8-4,0s-0.8-3.2,0-4"/>
<g>
	<rect x="375.6" y="132" style="fill:#798988;" width="3.2" height="3.2"/>
	<rect x="371.6" y="132" style="fill:#798988;" width="3.2" height="3.2"/>
	<rect x="379.6" y="132" style="fill:#798988;" width="3.2" height="3.2"/>
	<rect x="354" y="132" style="fill:#798988;" width="3.2" height="3.2"/>
	<rect x="358.8" y="132" style="fill:#798988;" width="3.2" height="3.2"/>
	<rect x="383.6" y="132" style="fill:#798988;" width="3.2" height="3.2"/>
	<rect x="362.8" y="132" style="fill:#798988;" width="3.2" height="3.2"/>
	<rect x="366.8" y="132" style="fill:#798988;" width="3.2" height="3.2"/>
	<rect x="388.4" y="132" style="fill:#798988;" width="3.2" height="3.2"/>
	<path style="fill:#798988;" d="M353.2,132H350c-0.8,0-1.6,0.8-1.6,1.6s0.8,1.6,1.6,1.6h3.2V132z"/>
	<rect x="405.2" y="132" style="fill:#798988;" width="3.2" height="3.2"/>
	<path style="fill:#798988;" d="M416.4,132h-3.2v3.2h3.2c0.8,0,1.6-0.8,1.6-1.6S418,132,416.4,132z"/>
	<rect x="409.2" y="132" style="fill:#798988;" width="3.2" height="3.2"/>
	<rect x="392.4" y="132" style="fill:#798988;" width="3.2" height="3.2"/>
	<rect x="396.4" y="132" style="fill:#798988;" width="3.2" height="3.2"/>
	<rect x="400.4" y="132" style="fill:#798988;" width="3.2" height="3.2"/>
	<rect x="375.6" y="492" style="fill:#798988;" width="3.2" height="3.2"/>
	<rect x="371.6" y="492" style="fill:#798988;" width="3.2" height="3.2"/>
	<rect x="379.6" y="492" style="fill:#798988;" width="3.2" height="3.2"/>
	<rect x="354" y="492" style="fill:#798988;" width="3.2" height="3.2"/>
	<rect x="358.8" y="492" style="fill:#798988;" width="3.2" height="3.2"/>
	<rect x="383.6" y="492" style="fill:#798988;" width="3.2" height="3.2"/>
	<rect x="362.8" y="492" style="fill:#798988;" width="3.2" height="3.2"/>
	<rect x="366.8" y="492" style="fill:#798988;" width="3.2" height="3.2"/>
	<rect x="388.4" y="492" style="fill:#798988;" width="3.2" height="3.2"/>
	<path style="fill:#798988;" d="M353.2,492H350c-0.8,0-1.6,0.8-1.6,1.6c0,0.8,0.8,1.6,1.6,1.6h3.2V492z"/>
	<rect x="405.2" y="492" style="fill:#798988;" width="3.2" height="3.2"/>
	<path style="fill:#798988;" d="M416.4,492h-3.2v3.2h3.2c0.8,0,1.6-0.8,1.6-1.6C418,492,418,492,416.4,492z"/>
	<rect x="409.2" y="492" style="fill:#798988;" width="3.2" height="3.2"/>
	<rect x="392.4" y="492" style="fill:#798988;" width="3.2" height="3.2"/>
	<rect x="396.4" y="492" style="fill:#798988;" width="3.2" height="3.2"/>
	<rect x="400.4" y="492" style="fill:#798988;" width="3.2" height="3.2"/>
</g>
<path style="fill:#97AAA9;" d="M394,474.4c0,5.6-4.8,10.4-10.4,10.4h-0.8c-5.6,0-10.4-4.8-10.4-10.4v-0.8c0-5.6,4.8-10.4,10.4-10.4
	h0.8c5.6,0,10.4,4.8,10.4,10.4V474.4z"/>
<path style="fill:#8C9997;" d="M382.8,463.2h0.8c5.6,0,10.4,4.8,10.4,10.4v0.8c0,5.6-4.8,10.4-10.4,10.4h-0.8"/>
<path style="fill:#7BD100;" d="M257.2,96L257.2,96h8.8c3.2,0,5.6-2.4,5.6-5.6s-2.4-5.6-5.6-5.6h-22.4c-1.6,0-3.2,0.8-4,1.6
	c-0.8,0.8-1.6,2.4-1.6,4v22.4c0,3.2,2.4,5.6,5.6,5.6s5.6-2.4,5.6-5.6V104l0,0l19.2,19.2c0.8,0.8,2.4,1.6,4,1.6s3.2-0.8,4-1.6
	c2.4-2.4,2.4-5.6,0-8L257.2,96z M249.2,96L249.2,96L249.2,96L249.2,96L249.2,96z"/>
<g>
</g>
<g>
</g>
<g>
</g>
<g>
</g>
<g>
</g>
<g>
</g>
<g>
</g>
<g>
</g>
<g>
</g>
<g>
</g>
<g>
</g>
<g>
</g>
<g>
</g>
<g>
</g>
<g>
</g>
</svg>
